<svg width="19" height="19" viewBox="0 0 19 19" fill="none" xmlns="http://www.w3.org/2000/svg">
<path d="M17.8091 0.965197C17.5164 0.672472 17.0418 0.672457 16.7491 0.965164L9.03012 8.68318L1.32062 0.971809C1.02768 0.678802 0.55264 0.678885 0.259807 0.971995C-0.0327813 1.26486 -0.0326982 1.73942 0.259993 2.03218L7.97012 9.74418L0.25409 17.4602C-0.0386842 17.753 -0.0389085 18.2276 0.253589 18.5206C0.546502 18.8141 1.02193 18.8143 1.31509 18.5211L9.03012 10.8042L16.7561 18.5292C17.0488 18.8219 17.5234 18.8219 17.8161 18.5292C18.1088 18.2365 18.1089 17.7619 17.8162 17.4692L10.0921 9.74418L17.8092 2.02523C18.1019 1.73248 18.1018 1.25791 17.8091 0.965197Z" fill="#141C24"/>
</svg>
